<svg viewBox="0 0 24 24" fill="none" xmlns="http://www.w3.org/2000/svg">
    <!-- Crown base -->
    <path d="M4 18h16l-1-8H5l-1 8z"
          fill="#FFD700"
          stroke="#FFA500"
          stroke-width="1.5"/>

    <!-- Crown spikes -->
    <path d="M5 10l2-6 3 4 2-8 2 8 3-4 2 6"
          fill="#FFD700"
          stroke="#FFA500"
          stroke-width="1.5"
          stroke-linejoin="round"/>

    <!-- Crown gems -->
    <circle cx="8" cy="6" r="1" fill="#E74C3C"/>
    <circle cx="12" cy="4" r="1.2" fill="#8E44AD"/>
    <circle cx="16" cy="6" r="1" fill="#27AE60"/>

    <!-- Crown base decoration -->
    <rect x="6" y="14" width="2" height="2" fill="#FFA500" opacity="0.7"/>
    <rect x="11" y="14" width="2" height="2" fill="#FFA500" opacity="0.7"/>
    <rect x="16" y="14" width="2" height="2" fill="#FFA500" opacity="0.7"/>

    <!-- Crown rim -->
    <ellipse cx="12" cy="18" rx="8" ry="1"
             fill="#F39C12"
             opacity="0.6"/>

    <!-- Shine effect -->
    <path d="M6 12l2-1 2 1 2-1 2 1 2-1 2 1v4H6v-4z"
          fill="#FFED4A"
          opacity="0.4"/>
</svg>