<svg viewBox="0 0 19 18" fill="none" xmlns="http://www.w3.org/2000/svg">
    <path d="M13.6514 0.5L13.8008 0.69043L17.3926 5.24609L17.626 5.54102L17.4062 5.84668L9.90625 16.292L9.50098 16.8574L9.09473 16.292L1.59375 5.84668L1.37402 5.54102L1.60742 5.24609L5.19922 0.69043L5.34961 0.5H13.6514Z" fill="#ED6FF7" stroke="white"/>
    <path d="M13.4084 1H9.5005H5.59162L2 5.55537L9.5005 16L17 5.55537L13.4084 1Z" fill="#ED6FF7"/>
    <path d="M9.50043 5.43665H5.75018L9.50043 16L13.2497 5.43665H9.50043Z" fill="#E249F2"/>
    <path d="M9.50043 1L5.75018 5.43665H13.2497L9.50043 1Z" fill="#FA6AFF"/>
    <path d="M2 5.55537H5.75025L9.5005 1H5.59162L2 5.55537Z" fill="#E249F2"/>
    <path d="M13.2497 5.43665H17L13.4084 1H9.50049L13.2497 5.43665Z" fill="#F989FF"/>
    <path d="M12.9684 6.25871C13.8663 6.25871 13.8663 4.86197 12.9684 4.86197C12.0705 4.86197 12.0705 6.25871 12.9684 6.25871Z" fill="white"/>
</svg>