<svg viewBox="0 0 24 24" fill="none" stroke="currentColor" stroke-width="2" stroke-linecap="round" stroke-linejoin="round" xmlns="http://www.w3.org/2000/svg">
    <!-- Gear/Settings Icon -->
    <circle cx="12" cy="12" r="3"/>
    <path d="M12 1v6m0 6v6"/>
    <path d="m20.49 8.5-4.33 2.5m-8.32 0L3.51 8.5"/>
    <path d="m20.49 15.5-4.33-2.5m-8.32 0L3.51 15.5"/>

    <!-- Outer gear teeth -->
    <path d="M19.07 4.93a10 10 0 0 1 0 14.14m-14.14 0a10 10 0 0 1 0-14.14"/>

    <!-- Enhanced gear design -->
    <path d="M12 8a4 4 0 1 0 0 8 4 4 0 0 0 0-8z" fill="none"/>
    <circle cx="12" cy="12" r="2" fill="currentColor"/>

    <!-- Settings indicators -->
    <circle cx="12" cy="4" r="1" fill="currentColor"/>
    <circle cx="12" cy="20" r="1" fill="currentColor"/>
    <circle cx="4" cy="12" r="1" fill="currentColor"/>
    <circle cx="20" cy="12" r="1" fill="currentColor"/>
    <circle cx="18.36" cy="5.64" r="1" fill="currentColor"/>
    <circle cx="5.64" cy="18.36" r="1" fill="currentColor"/>
    <circle cx="18.36" cy="18.36" r="1" fill="currentColor"/>
    <circle cx="5.64" cy="5.64" r="1" fill="currentColor"/>
</svg>