<svg viewBox="0 0 24 24" fill="none" xmlns="http://www.w3.org/2000/svg">
    <!-- Star outline -->
    <path d="M12 2l3.09 6.26L22 9.27l-5 4.87 1.18 6.88L12 17.77l-6.18 3.25L7 14.14 2 9.27l6.91-1.01L12 2z"
          fill="#FFD700"
          stroke="#FFA500"
          stroke-width="1.5"
          stroke-linejoin="round"/>

    <!-- Inner glow -->
    <path d="M12 4.5l2.5 5.1 5.6 0.8-4.1 4 0.9 5.6-5-2.6-5 2.6 0.9-5.6-4.1-4 5.6-0.8L12 4.5z"
          fill="#FFED4A"
          opacity="0.8"/>

    <!-- Highlight -->
    <path d="M12 4.5l1.8 3.6 3.9 0.6-2.8 2.7 0.7 3.9-3.6-1.9-1-0.5V4.5z"
          fill="#FFF8DC"
          opacity="0.6"/>

    <!-- Center sparkle -->
    <circle cx="12" cy="12" r="1.5" fill="#FFFFFF" opacity="0.9"/>
    <circle cx="12" cy="12" r="0.8" fill="#FFD700"/>
</svg>